<?xml version="1.0" encoding="iso-8859-1"?>
<!-- Generator: Adobe Illustrator 19.0.0, SVG Export Plug-In . SVG Version: 6.00 Build 0)  -->
<svg version="1.1" id="Capa_1" xmlns="http://www.w3.org/2000/svg" xmlns:xlink="http://www.w3.org/1999/xlink" x="0px" y="0px"
	 viewBox="0 0 512 512" style="enable-background:new 0 0 512 512;" xml:space="preserve">
<g>
	<g>
		<path d="M328.989,93.183c-40.247-40.248-105.734-40.248-145.981,0c-19.497,19.496-30.234,45.418-30.234,72.99
			s10.737,53.495,30.233,72.99c1.272,1.272,2.583,2.499,3.916,3.699l12.143-30.858c-10.464-12.949-16.159-28.95-16.159-45.832
			c0-19.524,7.603-37.877,21.408-51.683c28.499-28.498,74.868-28.498,103.365,0c13.805,13.805,21.408,32.16,21.408,51.683
			c0,16.879-5.693,32.878-16.155,45.826l12.144,30.86c1.331-1.199,2.641-2.425,3.911-3.695
			c19.497-19.496,30.233-45.418,30.233-72.99S348.486,112.678,328.989,93.183z"/>
	</g>
</g>
<g>
	<g>
		<path d="M373.558,48.616c-64.821-64.821-170.295-64.821-235.116,0s-64.821,170.295,0,235.116
			c7.592,7.591,15.759,14.329,24.445,20.22l11.374-28.902c-5.078-3.832-9.924-8.037-14.511-12.625
			c-53.072-53.073-53.072-139.429,0-192.501c53.073-53.072,139.429-53.072,192.501,0c53.072,53.073,53.072,139.429,0,192.501
			c-4.586,4.586-9.43,8.79-14.505,12.62l11.374,28.903c8.684-5.89,16.85-12.626,24.44-20.216
			C438.379,218.91,438.379,113.437,373.558,48.616z"/>
	</g>
</g>
<g>
	<g>
		<path d="M391.539,496.684c-0.005-0.306-0.005-0.613-0.029-0.921c-0.009-0.119-0.032-0.236-0.044-0.355
			c-0.073-0.718-0.199-1.437-0.38-2.153c-0.03-0.119-0.048-0.239-0.081-0.357c-0.039-0.142-0.095-0.282-0.14-0.424
			c-0.106-0.339-0.211-0.679-0.34-1.01c-0.007-0.018-0.011-0.036-0.018-0.054L275.998,200.418c2.876-1.677,5.585-3.744,8.047-6.206
			c6.848-6.848,10.871-15.762,11.513-25.336c0.06-0.897,0.101-1.797,0.101-2.704c0-10.592-4.124-20.549-11.615-28.039
			c-7.49-7.49-17.448-11.615-28.04-11.615c-10.592,0-20.549,4.124-28.04,11.615c-7.49,7.489-11.615,17.447-11.615,28.039
			c0,0.907,0.041,1.807,0.101,2.704c0.641,9.574,4.665,18.487,11.513,25.336c2.462,2.462,5.171,4.528,8.047,6.206l-34.647,88.045
			c-0.015,0.038-0.03,0.075-0.045,0.113L121.503,491.41c-0.007,0.018-0.011,0.036-0.018,0.054c-0.129,0.331-0.235,0.671-0.339,1.01
			c-0.044,0.142-0.1,0.282-0.14,0.424c-0.032,0.118-0.051,0.238-0.081,0.357c-0.181,0.715-0.306,1.434-0.38,2.153
			c-0.012,0.119-0.034,0.236-0.044,0.355c-0.024,0.307-0.024,0.614-0.029,0.921c-0.003,0.187-0.017,0.372-0.013,0.557
			c0.005,0.243,0.031,0.484,0.048,0.725c0.017,0.251,0.026,0.503,0.056,0.754c0.021,0.175,0.059,0.347,0.086,0.52
			c0.048,0.313,0.093,0.627,0.162,0.938c0.022,0.101,0.056,0.2,0.081,0.301c0.182,0.749,0.422,1.491,0.725,2.22
			c0.033,0.079,0.057,0.163,0.092,0.242c0.059,0.135,0.134,0.265,0.197,0.399c0.152,0.322,0.304,0.644,0.478,0.955
			c0.009,0.017,0.016,0.034,0.025,0.05c0.2,0.354,0.415,0.692,0.638,1.023c0.064,0.095,0.134,0.189,0.201,0.282
			c0.196,0.276,0.4,0.544,0.612,0.805c0.071,0.087,0.14,0.175,0.213,0.26c0.281,0.329,0.573,0.647,0.877,0.947
			c0.045,0.044,0.093,0.085,0.14,0.13c0.278,0.267,0.567,0.521,0.862,0.764c0.08,0.066,0.16,0.133,0.241,0.197
			c0.348,0.274,0.704,0.535,1.072,0.775c0.038,0.025,0.079,0.048,0.119,0.072c0.353,0.226,0.715,0.435,1.084,0.63
			c0.076,0.04,0.152,0.081,0.228,0.121c0.41,0.208,0.828,0.399,1.253,0.568c0.02,0.008,0.038,0.018,0.058,0.026
			c0.043,0.017,0.087,0.027,0.132,0.044c0.381,0.146,0.767,0.275,1.158,0.39c0.086,0.025,0.172,0.053,0.258,0.077
			c0.407,0.112,0.819,0.204,1.234,0.28c0.135,0.025,0.269,0.045,0.404,0.066c0.326,0.051,0.653,0.092,0.982,0.122
			c0.113,0.01,0.225,0.025,0.338,0.033c0.341,0.023,0.683,0.036,1.027,0.036c0.069,0,0.139-0.006,0.208-0.007
			c0.117-0.002,0.233-0.006,0.35-0.011c0.392-0.014,0.784-0.041,1.176-0.087c0.035-0.004,0.071-0.006,0.107-0.01
			c0.432-0.053,0.863-0.132,1.292-0.223c0.083-0.018,0.166-0.037,0.249-0.056c0.421-0.097,0.841-0.209,1.258-0.345
			c0.003-0.001,0.007-0.002,0.01-0.003c0.409-0.134,0.813-0.29,1.213-0.46c0.102-0.043,0.204-0.089,0.305-0.136
			c0.316-0.143,0.63-0.297,0.94-0.463c0.081-0.044,0.166-0.083,0.246-0.129c0.017-0.009,0.034-0.017,0.05-0.026l46.304-26.194
			l66.759-37.767l66.759,37.767l46.265,26.172c0.01,0.01,0.02,0.016,0.03,0.021l0.008,0.004c0.307,0.174,0.62,0.334,0.934,0.485
			c0.06,0.029,0.124,0.053,0.185,0.081c0.267,0.124,0.534,0.24,0.806,0.347c0.071,0.028,0.145,0.052,0.217,0.079
			c0.265,0.099,0.531,0.193,0.8,0.276c0.078,0.024,0.157,0.046,0.236,0.069c0.264,0.078,0.529,0.149,0.796,0.212
			c0.087,0.021,0.174,0.04,0.261,0.059c0.261,0.056,0.522,0.105,0.784,0.148c0.094,0.015,0.188,0.031,0.282,0.045
			c0.263,0.037,0.526,0.065,0.79,0.089c0.093,0.008,0.185,0.02,0.278,0.026c0.328,0.023,0.658,0.036,0.986,0.037
			c0.023,0,0.046,0.003,0.07,0.003c0.038,0,0.076-0.005,0.115-0.005c0.359-0.003,0.716-0.021,1.073-0.049
			c0.144-0.011,0.287-0.027,0.432-0.042c0.296-0.032,0.592-0.074,0.885-0.124c0.116-0.02,0.231-0.034,0.347-0.057
			c0.394-0.076,0.782-0.171,1.168-0.277c0.108-0.03,0.217-0.064,0.325-0.097c0.341-0.102,0.679-0.218,1.013-0.344
			c0.051-0.02,0.104-0.032,0.156-0.053c0.021-0.008,0.04-0.02,0.062-0.028c0.423-0.168,0.837-0.357,1.244-0.563
			c0.081-0.041,0.162-0.085,0.242-0.128c0.362-0.192,0.716-0.396,1.063-0.618c0.044-0.028,0.091-0.054,0.136-0.083
			c0.365-0.239,0.717-0.497,1.062-0.768c0.086-0.068,0.17-0.138,0.255-0.208c0.289-0.238,0.571-0.487,0.844-0.748
			c0.05-0.049,0.104-0.094,0.155-0.144c0.302-0.298,0.592-0.614,0.871-0.941c0.075-0.087,0.146-0.178,0.219-0.267
			c0.21-0.257,0.412-0.523,0.606-0.798c0.068-0.095,0.139-0.19,0.204-0.287c0.223-0.331,0.438-0.669,0.637-1.022
			c0.009-0.017,0.016-0.034,0.025-0.05c0.174-0.311,0.326-0.633,0.478-0.955c0.063-0.134,0.138-0.264,0.197-0.399
			c0.034-0.079,0.059-0.163,0.092-0.242c0.303-0.729,0.543-1.471,0.725-2.22c0.025-0.101,0.058-0.199,0.081-0.301
			c0.069-0.311,0.114-0.625,0.162-0.938c0.027-0.174,0.065-0.346,0.086-0.52c0.03-0.251,0.039-0.502,0.056-0.754
			c0.017-0.242,0.043-0.482,0.048-0.725C391.556,497.054,391.542,496.87,391.539,496.684z M289.415,316.815l8.947,22.734
			l-18.908-14.776L289.415,316.815z M256.002,231.906l21.865,55.563l-22.819,18.232l-21.479-16.786L256.002,231.906z
			 M222.058,318.167l8.792,6.87l-16.768,13.398L222.058,318.167z M206.769,439.312l-41.657,23.566l21.956-55.794l26.487,14.984
			l11.848,6.703L206.769,439.312z M256.002,411.46l-31.305-17.71l-18.485-10.458l32.966-26.339l16.077-12.846l18.074,14.124
			l32.234,25.19l-18.258,10.329L256.002,411.46z M305.235,439.312l-18.634-10.541l11.848-6.703l26.487-14.984l21.956,55.794
			L305.235,439.312z"/>
	</g>
</g>
<g>
</g>
<g>
</g>
<g>
</g>
<g>
</g>
<g>
</g>
<g>
</g>
<g>
</g>
<g>
</g>
<g>
</g>
<g>
</g>
<g>
</g>
<g>
</g>
<g>
</g>
<g>
</g>
<g>
</g>
</svg>
