<?xml version="1.0" encoding="UTF-8" standalone="no"?>
<!-- Created with Inkscape (http://www.inkscape.org/) -->

<svg
   xmlns:dc="http://purl.org/dc/elements/1.1/"
   xmlns:cc="http://creativecommons.org/ns#"
   xmlns:rdf="http://www.w3.org/1999/02/22-rdf-syntax-ns#"
   xmlns:svg="http://www.w3.org/2000/svg"
   xmlns="http://www.w3.org/2000/svg"
   xmlns:sodipodi="http://sodipodi.sourceforge.net/DTD/sodipodi-0.dtd"
   xmlns:inkscape="http://www.inkscape.org/namespaces/inkscape"
   width="10.348053mm"
   height="10.325408mm"
   viewBox="0 0 10.348053 10.325408"
   version="1.1"
   id="svg7554"
   inkscape:version="0.92.5 (2060ec1f9f, 2020-04-08)"
   sodipodi:docname="Airplane.svg">
  <defs
     id="defs7548" />
  <sodipodi:namedview
     id="base"
     pagecolor="#ffffff"
     bordercolor="#666666"
     borderopacity="1.0"
     inkscape:pageopacity="0.0"
     inkscape:pageshadow="2"
     inkscape:zoom="5.6"
     inkscape:cx="21.19574"
     inkscape:cy="18.643496"
     inkscape:document-units="mm"
     inkscape:current-layer="layer1"
     showgrid="false"
     fit-margin-top="0"
     fit-margin-left="0"
     fit-margin-right="0"
     fit-margin-bottom="0"
     inkscape:window-width="1920"
     inkscape:window-height="1017"
     inkscape:window-x="-8"
     inkscape:window-y="-8"
     inkscape:window-maximized="1" />
  <metadata
     id="metadata7551">
    <rdf:RDF>
      <cc:Work
         rdf:about="">
        <dc:format>image/svg+xml</dc:format>
        <dc:type
           rdf:resource="http://purl.org/dc/dcmitype/StillImage" />
        <dc:title></dc:title>
      </cc:Work>
    </rdf:RDF>
  </metadata>
  <g
     inkscape:label="Layer 1"
     inkscape:groupmode="layer"
     id="layer1"
     transform="translate(-107.40151,-109.96917)">
    <path
       style="fill:#000000;stroke-width:1"
       d="m 113.05846,118.5481 -1.74648,-1.74648 -0.94773,0.62125 -0.94773,0.62125 0.58,0.66221 0.57999,0.66221 -0.67851,-0.59531 c -0.37318,-0.32743 -0.81966,-0.59532 -0.99219,-0.59532 -0.17252,0 -0.31367,-0.20068 -0.31367,-0.44597 0,-0.24528 -0.26789,-0.75129 -0.59532,-1.12447 l -0.59531,-0.67852 0.6783,0.59512 0.67829,0.59511 0.72302,-0.75467 0.72302,-0.75467 -1.50407,-2.18345 c -1.18719,-1.72344 -1.42668,-2.23246 -1.13673,-2.41608 0.74863,-0.47409 1.41027,-0.11573 3.56287,1.92974 l 1.07887,1.02518 1.61745,-1.08009 1.61744,-1.08009 -0.53964,-0.91461 c -0.63779,-1.08099 -0.18029,-1.26832 0.61824,-0.25315 0.28617,0.3638 0.7101,0.66146 0.94208,0.66146 0.23197,0 0.34296,0.0788 0.24664,0.17512 -0.0963,0.0963 0.13399,0.58039 0.51179,1.07571 0.87818,1.15135 0.63736,1.398 -0.51029,0.52264 l -0.89358,-0.68156 -1.23028,1.24907 c -0.67666,0.68699 -1.23029,1.33196 -1.23029,1.43328 0,0.10132 0.41862,0.83862 0.93027,1.63846 1.25426,1.96073 1.54162,2.75822 1.15968,3.21842 -0.16646,0.20058 -0.37848,0.36469 -0.47115,0.36469 -0.0927,0 -0.95441,-0.78592 -1.91498,-1.74648 z"
       id="path8144"
       inkscape:connector-curvature="0" />
  </g>
</svg>
