<?xml version="1.0" encoding="UTF-8" standalone="no"?>
<!-- Created with Inkscape (http://www.inkscape.org/) -->

<svg
   xmlns:dc="http://purl.org/dc/elements/1.1/"
   xmlns:cc="http://creativecommons.org/ns#"
   xmlns:rdf="http://www.w3.org/1999/02/22-rdf-syntax-ns#"
   xmlns:svg="http://www.w3.org/2000/svg"
   xmlns="http://www.w3.org/2000/svg"
   xmlns:sodipodi="http://sodipodi.sourceforge.net/DTD/sodipodi-0.dtd"
   xmlns:inkscape="http://www.inkscape.org/namespaces/inkscape"
   width="6.6682644mm"
   height="10.493999mm"
   viewBox="0 0 6.6682646 10.493999"
   version="1.1"
   id="svg7554"
   inkscape:version="0.92.5 (2060ec1f9f, 2020-04-08)"
   sodipodi:docname="Antenna.svg">
  <defs
     id="defs7548" />
  <sodipodi:namedview
     id="base"
     pagecolor="#ffffff"
     bordercolor="#666666"
     borderopacity="1.0"
     inkscape:pageopacity="0.0"
     inkscape:pageshadow="2"
     inkscape:zoom="5.6"
     inkscape:cx="9.1082868"
     inkscape:cy="6.6284586"
     inkscape:document-units="mm"
     inkscape:current-layer="layer1"
     showgrid="false"
     fit-margin-top="0"
     fit-margin-left="0"
     fit-margin-right="0"
     fit-margin-bottom="0"
     inkscape:window-width="1920"
     inkscape:window-height="1017"
     inkscape:window-x="-8"
     inkscape:window-y="-8"
     inkscape:window-maximized="1" />
  <metadata
     id="metadata7551">
    <rdf:RDF>
      <cc:Work
         rdf:about="">
        <dc:format>image/svg+xml</dc:format>
        <dc:type
           rdf:resource="http://purl.org/dc/dcmitype/StillImage" />
        <dc:title></dc:title>
      </cc:Work>
    </rdf:RDF>
  </metadata>
  <g
     inkscape:label="Layer 1"
     inkscape:groupmode="layer"
     id="layer1"
     transform="translate(-110.59964,-106.6216)">
    <path
       style="fill:#000000;stroke-width:1"
       d="m 111.20141,116.98924 c -0.083,-0.083 0.32864,-1.30343 0.91484,-2.71198 0.65078,-1.56372 1.07877,-3.02463 1.09907,-3.75162 0.0303,-1.08474 0.0921,-1.19063 0.69471,-1.19063 0.60263,0 0.66441,0.10589 0.6947,1.19063 0.0203,0.72816 0.44962,2.19121 1.10518,3.76663 0.58956,1.4168 0.96322,2.64319 0.83035,2.7253 -0.13286,0.0821 -0.77902,-0.16566 -1.4359,-0.55062 l -1.19433,-0.69993 -1.1716,0.6866 c -1.27095,0.74483 -1.31312,0.75953 -1.53702,0.53562 z m 1.77437,-1.71438 c -0.25376,-0.41059 -0.58208,-0.28747 -0.72872,0.27327 -0.11728,0.44851 -0.0631,0.48495 0.37343,0.25131 0.28083,-0.1503 0.44071,-0.38636 0.35529,-0.52458 z m 2.59841,0.27786 c -0.14729,-0.56324 -0.47533,-0.68978 -0.72807,-0.28084 -0.11531,0.18657 0.44098,0.72728 0.82507,0.80196 0.0228,0.004 -0.0209,-0.23008 -0.097,-0.52112 z m -1.135,-0.78823 c 0.34711,-0.21949 0.33881,-0.30905 -0.0661,-0.7141 -0.44102,-0.44113 -0.48503,-0.44113 -0.92604,0 -0.40496,0.40505 -0.41325,0.49461 -0.0662,0.7141 0.21828,0.13803 0.45641,0.25096 0.52917,0.25096 0.0728,0 0.31088,-0.11293 0.52916,-0.25096 z m -0.26458,-2.66697 c 0,-0.28245 -0.10518,-0.51355 -0.23372,-0.51355 -0.27184,0 -0.56958,0.9606 -0.36206,1.16811 0.25087,0.25087 0.59578,-0.12808 0.59578,-0.65456 z m -3.10275,-0.17118 c -0.66334,-1.01237 -0.62099,-3.00889 0.084,-3.96099 0.30422,-0.41085 1.04837,-0.92192 1.65365,-1.13572 2.09453,-0.73982 4.16818,0.56425 4.44103,2.79287 0.13301,1.08644 -0.52156,2.76001 -1.15771,2.95995 -0.46639,0.14659 -0.41114,-0.47109 0.0918,-1.02688 0.52783,-0.58324 0.58938,-2.11219 0.12033,-2.98862 -0.47322,-0.88422 -1.94251,-1.56421 -2.91727,-1.35012 -0.93869,0.20618 -2.10932,1.33538 -2.16471,2.08812 -0.0788,1.07085 0.0833,1.88485 0.45786,2.29986 0.20737,0.22974 0.37704,0.55716 0.37704,0.7276 0,0.54113 -0.5005,0.33503 -0.98608,-0.40607 z m 0.99539,-0.85414 c -0.75333,-1.40761 0.27692,-3.19239 1.84278,-3.19239 1.65997,0 2.71779,2.06624 1.70116,3.32286 -0.39206,0.48461 -0.40804,0.45828 -0.28317,-0.46654 0.15119,-1.11989 -0.58442,-2.32716 -1.41799,-2.32716 -0.82314,0 -1.57274,1.20888 -1.402,2.26101 0.16455,1.01403 -0.0222,1.18442 -0.44078,0.40222 z"
       id="path8220"
       inkscape:connector-curvature="0" />
  </g>
</svg>
