<?xml version="1.0" encoding="UTF-8" standalone="no"?>
<!-- Created with Inkscape (http://www.inkscape.org/) -->

<svg
   xmlns:dc="http://purl.org/dc/elements/1.1/"
   xmlns:cc="http://creativecommons.org/ns#"
   xmlns:rdf="http://www.w3.org/1999/02/22-rdf-syntax-ns#"
   xmlns:svg="http://www.w3.org/2000/svg"
   xmlns="http://www.w3.org/2000/svg"
   xmlns:sodipodi="http://sodipodi.sourceforge.net/DTD/sodipodi-0.dtd"
   xmlns:inkscape="http://www.inkscape.org/namespaces/inkscape"
   width="75.290642mm"
   height="35.800896mm"
   viewBox="0 0 75.290642 35.800896"
   version="1.1"
   id="svg8"
   inkscape:version="0.92.5 (2060ec1f9f, 2020-04-08)"
   sodipodi:docname="GXAirCom solito.svg">
  <defs
     id="defs2">
    <pattern
       id="pattern126"
       patternTransform="matrix(0.26458333,0,0,0.26458333,57.586798,8.5192992)"
       height="77.348212"
       width="308.1925"
       patternUnits="userSpaceOnUse">
      <path
         style="fill:#000000;stroke-width:0.31308246"
         d="M 295.05642,76.731197 C 294.59487,76.192164 287.53014,61.89222 280.08454,46.426298 l -2.29738,-4.77216 3.90637,-4.933398 c 4.15132,-5.24273 4.50368,-5.538633 5.2453,-4.404658 1.77623,2.716011 21.52131,43.95343 21.25092,44.382448 -0.53295,0.845768 -12.41182,0.875312 -13.13333,0.0325 z M 11.101606,57.489471 C 0.86001989,54.171839 -1.8131455,46.829956 1.1153081,30.061995 5.5885604,4.4487432 13.88222,-1.466841 39.938358,2.370827 c 3.955737,0.5826217 3.823121,0.4042394 3.181297,4.2790998 -0.733444,4.4279812 0.0083,4.1202142 -8.998557,3.7334662 C 16.490683,9.6263501 14.716788,11.16249 11.48191,29.9882 c -2.1255689,12.369981 -1.6247663,16.390647 2.3284,18.693441 1.122441,0.653843 11.584052,1.208765 11.584052,0.614464 0,-0.565266 3.160883,-18.250307 3.444692,-19.272933 0.396544,-1.428847 0.704999,-1.513508 5.534067,-1.518921 4.02398,-0.0045 4.889737,0.272655 4.614864,1.477357 -0.06947,0.304365 -1.125914,6.259329 -2.347711,13.233241 -1.221792,6.973912 -2.379401,12.870626 -2.572467,13.103811 -1.522261,1.838578 -18.269238,2.692331 -22.966201,1.170811 z m 45.633759,0.276888 C 46.982128,55.033817 44.144753,44.689284 48.910821,29.239547 55.101089,9.173113 83.853464,9.9849895 83.701659,30.221933 c -0.07722,10.294643 0.572092,9.862095 -14.804334,9.862095 H 56.427893 l -0.214224,1.428548 c -1.175014,7.835539 2.718176,9.46695 18.938026,7.935821 3.930138,-0.370998 5.497122,4.096604 2.486279,7.088572 -1.338316,1.329925 -17.211538,2.26351 -20.902609,1.22939 z M 74.03955,32.21783 c 1.06763,-5.338141 -1.449022,-8.727167 -6.480684,-8.727167 -5.234351,0 -8.223349,2.720152 -9.718719,8.844574 l -0.210217,0.860976 h 8.106973 8.106973 z M 94.748103,57.705716 C 88.380491,55.502721 88.301272,54.408517 92.699232,29.405763 96.793908,6.1272295 96.259234,8.5131735 97.492747,8.0150015 105.38799,4.8263747 107.01147,6.2474412 105.06836,14.646081 l -0.16297,0.704432 h 5.4593 c 7.23474,0 6.92582,-0.232177 6.00755,4.515443 -0.58619,3.030686 -0.51009,2.998537 -7.09767,2.998537 -5.49068,0 -5.54318,0.006 -5.70218,0.70444 -0.96495,4.235739 -4.341877,25.034324 -4.173548,25.704998 0.310375,1.236635 1.249368,1.454902 6.258938,1.454902 5.46596,0 5.8307,0.534422 4.09566,6.001043 -0.44686,1.407931 -11.650436,2.13653 -15.005337,0.97584 z m 58.261367,-0.118261 c -9.46976,-3.256947 -12.01791,-13.791262 -6.94427,-28.708377 6.55732,-19.2792942 34.88007,-18.651552 34.92652,0.774112 0.0113,4.677369 -2.3723,14.6782 -4.45009,18.671924 -4.08359,7.849232 -15.06894,12.173103 -23.53216,9.262341 z m 10.25135,-8.191287 c 4.05506,-1.180161 6.216,-5.864285 7.69761,-16.685405 0.88464,-6.460868 -1.32,-9.387881 -6.89038,-9.148134 -6.60707,0.284371 -9.95196,5.961509 -10.84093,18.399892 -0.46419,6.494824 3.4064,9.362419 10.0337,7.433647 z m 83.33031,8.540028 c -0.34697,-0.561464 0.49583,-1.643426 12.25681,-15.734083 6.42951,-7.703112 11.69001,-14.215581 11.69001,-14.472151 0,-0.256554 -2.77799,-6.121655 -6.17329,-13.033534 l -6.1733,-12.5670448 0.72904,-0.5903244 c 0.86045,-0.6967559 11.07817,-0.90102803 12.30217,-0.2459716 1.08253,0.5793486 13.2415,25.5317158 12.85485,26.3803598 -0.46064,1.010986 -22.51071,28.712598 -23.6474,29.708375 l -0.98283,0.860977 h -6.33328 c -3.79536,0 -6.40921,-0.122873 -6.52278,-0.306596 z M 117.29006,57.421371 c -0.3247,-0.324699 -0.44824,-0.805421 -0.34197,-1.330601 0.0915,-0.452236 1.58124,-8.923253 3.3105,-18.824485 1.72926,-9.901232 3.217,-18.236187 3.30609,-18.522131 0.56058,-1.799081 8.67956,-3.706722 15.77602,-3.706722 4.294,0 4.24692,-0.05099 3.48763,3.780929 -0.90702,4.577579 -0.37564,4.214525 -6.55662,4.479678 -1.95486,0.08387 -3.62518,0.22337 -3.71182,0.309997 -0.0866,0.08663 -1.46648,7.59185 -3.0663,16.678227 -2.5996,14.764815 -2.98243,16.580353 -3.60202,17.082066 -0.97851,0.792356 -7.82001,0.834528 -8.60151,0.05303 z m 68.00711,0.06818 c -0.26835,-0.26846 -0.43163,-0.737106 -0.36284,-1.041479 0.0688,-0.304365 1.04655,-5.836668 2.17236,-12.293994 3.27148,-18.764353 3.61712,-20.157922 5.81639,-23.451345 5.51785,-8.263 26.65349,-8.017746 30.35996,0.352289 1.48959,3.363825 -1.34067,29.220246 -3.93993,35.99376 -0.27817,0.72508 -1.11885,0.871813 -5.02208,0.876635 -5.31738,0.0064 -5.09227,1.749404 -2.02356,-15.666863 3.46722,-19.678171 3.64539,-18.861479 -4.15019,-19.023663 -7.8969,-0.164296 -7.43901,-0.953813 -10.92234,18.833776 -1.41982,8.065485 -2.75229,14.898508 -2.96103,15.184501 -0.55582,0.761442 -8.23934,0.963984 -8.96697,0.236372 z m 44.77489,0.236485 c -1.08941,-0.308825 5.67685,-40.725948 7.00237,-41.827638 0.91445,-0.760014 8.11653,-0.817452 8.73713,-0.06969 0.45362,0.546558 -6.37172,40.440847 -7.08635,41.419782 -0.38116,0.522195 -7.17339,0.897026 -8.65315,0.477532 z M 286.58495,23.11273 c -0.41907,-0.510501 -4.14988,-8.562838 -4.14988,-8.956759 0,-0.342198 9.44492,-11.8535942 10.38682,-12.6593668 1.32805,-1.13612225 11.52896,-0.6728958 11.52896,0.5235288 0,0.5797719 -16.46132,21.281097 -17.02141,21.40567 -0.22677,0.05042 -0.56175,-0.09044 -0.74449,-0.313058 z M 239.57897,9.6931533 c -2.08112,-0.2854299 -2.11767,-0.4128643 -1.35534,-4.727571 0.85882,-4.86081263 0.76637,-4.7722394 5.1199,-4.90642775 6.18414,-0.19060157 6.11622,-0.26547401 4.99737,5.50774865 -0.80557,4.1565543 -2.55017,4.9781368 -8.76193,4.1262501 z"
         id="path124"
         inkscape:connector-curvature="0" />
    </pattern>
  </defs>
  <sodipodi:namedview
     id="base"
     pagecolor="#ffffff"
     bordercolor="#666666"
     borderopacity="1.0"
     inkscape:pageopacity="0.0"
     inkscape:pageshadow="2"
     inkscape:zoom="2.8"
     inkscape:cx="136.0198"
     inkscape:cy="57.163342"
     inkscape:document-units="mm"
     inkscape:current-layer="layer1"
     showgrid="false"
     showguides="true"
     inkscape:guide-bbox="true"
     inkscape:window-width="1920"
     inkscape:window-height="1017"
     inkscape:window-x="-8"
     inkscape:window-y="-8"
     inkscape:window-maximized="1"
     fit-margin-top="0"
     fit-margin-left="0"
     fit-margin-right="0"
     fit-margin-bottom="0" />
  <metadata
     id="metadata5">
    <rdf:RDF>
      <cc:Work
         rdf:about="">
        <dc:format>image/svg+xml</dc:format>
        <dc:type
           rdf:resource="http://purl.org/dc/dcmitype/StillImage" />
        <dc:title />
      </cc:Work>
    </rdf:RDF>
  </metadata>
  <g
     inkscape:label="Layer 1"
     inkscape:groupmode="layer"
     id="layer1"
     transform="translate(-66.685587,-18.743664)">
    <path
       inkscape:connector-curvature="0"
       id="path176-5"
       style="fill:#000000;stroke-width:0.14669952;stroke:none"
       d="m 103.7309,29.128944 -0.15568,-0.189657 -0.8944,-1.935202 -0.8944,-1.935198 V 24.93213 24.795372 l 2.2834,-2.769123 2.2834,-2.769131 0.3001,-0.256723 0.30009,-0.256724 h 2.17469 2.17469 l 0.37629,0.143064 0.37631,0.143064 v 0.215897 0.215897 l -3.89124,4.885546 -3.89124,4.885544 -0.19316,0.04298 -0.19316,0.04298 z m -18.73969,16.317061 -0.08878,-0.14366 0.177176,-0.333104 0.177177,-0.333105 5.477528,-6.562567 5.477533,-6.56256 v -0.218587 -0.218587 l -2.892589,-5.888474 -2.892589,-5.888477 0.341599,-0.276606 0.341605,-0.276614 h 2.560627 2.560637 l 0.301506,0.161366 0.301513,0.161366 2.932909,5.941738 2.932918,5.941741 -0.14401,0.316069 -0.14401,0.316066 -5.23791,6.600408 -5.237908,6.600405 -0.460526,0.403422 -0.460517,0.403428 h -2.967552 -2.967546 z m 22.70912,8.806681 -0.24988,-0.291848 -2.84447,-5.835952 -2.84445,-5.835954 -1.07648,-2.236066 -1.076479,-2.236065 1.830389,-2.311616 1.8304,-2.311616 0.20282,-0.04562 0.20282,-0.04562 0.22173,0.339045 0.22173,0.33905 4.93957,10.114701 4.93958,10.114701 -0.14346,0.227611 -0.14342,0.227614 -2.88025,0.03976 -2.88025,0.03976 z" />
    <g
       id="text187"
       style="font-style:normal;font-variant:normal;font-weight:normal;font-stretch:normal;font-size:8.01343346px;line-height:1.25;font-family:'Eras Light ITC';-inkscape-font-specification:'Eras Light ITC';letter-spacing:0px;word-spacing:0px;fill:#000000;fill-opacity:1;stroke:none;stroke-width:0.20033585"
       aria-label="Air"
       transform="matrix(2.2050568,0,0,2.2050568,-95.867375,-163.65603)">
      <path
         id="path316"
         style="font-style:normal;font-variant:normal;font-weight:normal;font-stretch:normal;font-family:NeoTech;-inkscape-font-specification:NeoTech;stroke-width:0.20033585;stroke:none"
         d="m 102.52335,84.272036 c 0,-0.905518 -0.60902,-1.266122 -1.57063,-1.266122 h -0.55293 c -1.10585,0 -1.891166,0.272456 -2.139583,1.706861 l -0.721209,4.126918 v 0.008 c 0,0.008 0,0.01603 0,0.02404 0,0.07212 0.04007,0.128215 0.120202,0.128215 h 0.809357 c 0.08815,0 0.168282,-0.07212 0.184309,-0.160269 l 0.368618,-2.115546 h 2.003356 l -0.36862,2.115546 c 0,0.008 0,0.008 0,0.01603 0,0.008 0,0.01603 0,0.02404 0,0.07212 0.0401,0.120202 0.11219,0.120202 h 0.80936 c 0.0881,0 0.16828,-0.07212 0.18431,-0.160269 l 0.72121,-4.126918 c 0.024,-0.160269 0.0401,-0.304511 0.0401,-0.440739 z m -1.11386,0.144242 c 0,0.08013 -0.016,0.184309 -0.0321,0.296497 l -0.18431,1.0738 h -2.003354 l 0.184309,-1.0738 c 0.09616,-0.56094 0.296497,-0.737236 0.857435,-0.737236 h 0.55293 c 0.45676,0 0.62505,0.112188 0.62505,0.440739 z"
         inkscape:connector-curvature="0" />
      <path
         id="path318"
         style="font-style:normal;font-variant:normal;font-weight:normal;font-stretch:normal;font-family:NeoTech;-inkscape-font-specification:NeoTech;stroke-width:0.20033585;stroke:none"
         d="m 105.02142,82.989887 c 0,-0.08013 -0.0561,-0.136229 -0.13623,-0.136229 h -0.7773 c -0.0881,0 -0.1763,0.07212 -0.19233,0.160269 l -0.12821,0.705182 c 0,0.008 0,0.01603 0,0.02404 0,0.08013 0.0641,0.136228 0.14424,0.136228 h 0.7773 c 0.0881,0 0.16828,-0.07212 0.18431,-0.160269 l 0.12822,-0.705182 c 0,-0.008 0,-0.01603 0,-0.02404 z m -0.31253,1.626727 c 0,-0.08013 -0.0561,-0.136229 -0.13623,-0.136229 h -0.73723 c -0.0881,0 -0.16828,0.07212 -0.18431,0.160269 l -0.73724,4.191026 c 0,0.008 0,0.01603 0,0.03205 0,0.07212 0.0481,0.136229 0.12822,0.136229 h 0.73723 c 0.0881,0 0.1763,-0.08013 0.19233,-0.168282 l 0.73723,-4.191026 c 0,-0.008 0,-0.01603 0,-0.02404 z"
         inkscape:connector-curvature="0" />
      <path
         id="path320"
         style="font-style:normal;font-variant:normal;font-weight:normal;font-stretch:normal;font-family:NeoTech;-inkscape-font-specification:NeoTech;stroke-width:0.20033585;stroke:none"
         d="m 107.8628,84.536479 c 0,-0.09616 -0.1202,-0.112188 -0.20834,-0.112188 -0.68916,0 -1.12189,0.06411 -1.6668,0.23239 -0.15225,0.04808 -0.24842,0.136228 -0.26444,0.240403 l -0.68916,3.934596 c 0,0.008 0,0.01603 0,0.03205 0,0.07212 0.0481,0.136229 0.12822,0.136229 h 0.74525 c 0.0881,0 0.16828,-0.08013 0.18431,-0.168282 l 0.60902,-3.461804 c 0.20033,-0.04007 0.52888,-0.05609 0.79333,-0.05609 0.18431,0 0.2404,-0.05609 0.25643,-0.144241 l 0.11218,-0.609021 c 0,-0.008 0,-0.01603 0,-0.02404 z"
         inkscape:connector-curvature="0" />
    </g>
    <g
       id="text187-5"
       style="font-style:normal;font-variant:normal;font-weight:normal;font-stretch:normal;font-size:8.01343346px;line-height:1.25;font-family:'Eras Light ITC';-inkscape-font-specification:'Eras Light ITC';letter-spacing:0px;word-spacing:0px;fill:#000000;fill-opacity:1;stroke:none;stroke-width:0.20033585"
       aria-label="Com"
       transform="matrix(2.2050568,0,0,2.2050568,-95.867375,-163.65603)">
      <path
         id="path323"
         style="font-style:normal;font-variant:normal;font-weight:normal;font-stretch:normal;font-family:NeoTech;-inkscape-font-specification:NeoTech;stroke-width:0.20033585;stroke:none"
         d="m 96.553954,88.189412 c 0,-0.008 0,-0.01603 0,-0.02404 0,-0.08013 -0.05609,-0.120201 -0.144242,-0.144241 -0.112188,-0.03205 -0.633061,-0.128215 -1.250095,-0.128215 -0.961612,0 -2.331909,0.30451 -2.700527,2.45211 L 92.258754,91.523 c -0.03205,0.208349 -0.05609,0.408685 -0.05609,0.584981 0,1.410364 1.041746,1.86713 1.89117,1.86713 0.617034,0 1.153934,-0.09616 1.282149,-0.128215 0.112188,-0.03205 0.184309,-0.07212 0.20835,-0.184309 l 0.09616,-0.5369 c 0,-0.01603 0.008,-0.03205 0.008,-0.04808 0,-0.07212 -0.04007,-0.120201 -0.136228,-0.120201 -0.008,0 -0.008,0 -0.008,0 h -0.008 c -0.288484,0.02404 -0.833397,0.06411 -1.258109,0.06411 -0.56094,0 -0.945585,-0.216363 -0.945585,-0.969625 0,-0.152256 0.01603,-0.328551 0.04808,-0.528887 l 0.200336,-1.177975 c 0.184309,-1.089827 0.753263,-1.498512 1.426391,-1.498512 0.424712,0 0.969626,0.04007 1.242083,0.06411 0,0 0,0 0.008,0 0,0 0,0 0.008,0 0.112189,0 0.176296,-0.07212 0.192323,-0.168282 l 0.09616,-0.536901 c 0,-0.008 0,-0.008 0,-0.01603 z"
         inkscape:connector-curvature="0" />
      <path
         id="path325"
         style="font-style:normal;font-variant:normal;font-weight:normal;font-stretch:normal;font-family:NeoTech;-inkscape-font-specification:NeoTech;stroke-width:0.20033585;stroke:none"
         d="m 100.65971,90.913979 c 0,-0.841411 -0.50484,-1.578646 -1.602685,-1.578646 -1.258109,0 -2.011372,0.601007 -2.267801,1.995345 l -0.120202,0.649088 c -0.02404,0.128215 -0.03205,0.25643 -0.03205,0.384644 0,0.841411 0.51286,1.610701 1.602687,1.610701 1.258109,0 2.011371,-0.673129 2.259781,-1.995345 l 0.1202,-0.649088 c 0.0241,-0.136229 0.0401,-0.280471 0.0401,-0.416699 z m -1.065785,0.06411 c 0,0.104175 -0.008,0.224377 -0.03205,0.352592 l -0.120202,0.649088 c -0.136228,0.745249 -0.480806,1.081813 -1.041746,1.081813 -0.472793,0 -0.705182,-0.25643 -0.705182,-0.729222 0,-0.104175 0.008,-0.224376 0.03205,-0.352591 l 0.120202,-0.649088 c 0.144242,-0.79333 0.56094,-1.081814 1.04976,-1.081814 0.472792,0 0.697168,0.25643 0.697168,0.729222 z"
         inkscape:connector-curvature="0" />
      <path
         id="path327"
         style="font-style:normal;font-variant:normal;font-weight:normal;font-stretch:normal;font-family:NeoTech;-inkscape-font-specification:NeoTech;stroke-width:0.20033585;stroke:none"
         d="m 107.37672,90.521321 c 0,-0.753263 -0.43272,-1.185988 -1.3703,-1.185988 h -0.19232 c -0.42471,0 -0.84942,0.09616 -1.12989,0.312524 -0.20835,-0.200336 -0.5369,-0.312524 -0.99367,-0.312524 h -0.19232 c -1.01771,0 -1.69083,0.384644 -1.89117,1.530565 l -0.50485,2.876823 c 0,0.008 0,0.02404 0,0.03205 0,0.07212 0.0401,0.136228 0.1202,0.136228 h 0.75327 c 0.0882,0 0.16828,-0.08013 0.18431,-0.168282 l 0.50484,-2.876823 c 0.0962,-0.544913 0.30451,-0.649088 0.67313,-0.649088 h 0.19232 c 0.35259,0 0.44876,0.160269 0.44876,0.376632 0,0.08013 -0.016,0.176295 -0.0321,0.272456 l -0.50484,2.876823 c 0,0.008 0,0.02404 0,0.03205 0,0.07212 0.0401,0.136228 0.1202,0.136228 h 0.76127 c 0.0881,0 0.16829,-0.08013 0.18431,-0.168282 l 0.50485,-2.876823 c 0.0801,-0.448752 0.17629,-0.649088 0.64107,-0.649088 h 0.19233 c 0.36861,0 0.4808,0.136229 0.4808,0.376632 0,0.08013 -0.016,0.168282 -0.032,0.272456 l -0.50485,2.876823 c 0,0.008 0,0.02404 0,0.03205 0,0.07212 0.0401,0.136228 0.1202,0.136228 h 0.75327 c 0.0881,0 0.16828,-0.08013 0.18431,-0.168282 l 0.48881,-2.796688 c 0.024,-0.152256 0.0401,-0.288484 0.0401,-0.424712 z"
         inkscape:connector-curvature="0" />
    </g>
    <g
       id="text309"
       style="font-style:normal;font-variant:normal;font-weight:normal;font-stretch:normal;font-size:15.76885891px;line-height:1.25;font-family:NeoTech;-inkscape-font-specification:NeoTech;letter-spacing:0px;word-spacing:0px;fill:#000000;fill-opacity:1;stroke:none;stroke-width:0.39422148"
       aria-label="G"
       transform="matrix(2.2050568,0,0,2.2050568,-95.867375,-163.65603)">
      <path
         id="path313"
         style="stroke-width:0.39422148;stroke:none"
         d="m 82.958816,83.402522 c 0,-0.14192 -0.09461,-0.220764 -0.26807,-0.252302 -0.504604,-0.09461 -1.829188,-0.283839 -3.342998,-0.283839 -1.876494,0 -4.415281,0.772674 -5.124879,4.856808 l -0.394222,2.270716 c -0.07884,0.40999 -0.110382,0.788443 -0.110382,1.135358 0,2.838394 2.176103,3.705682 3.484918,3.705682 1.624192,0 2.664937,-0.110383 3.484918,-0.268071 0.220764,-0.04731 0.331146,-0.173458 0.362683,-0.378453 l 0.930363,-5.298336 v -0.01577 c 0,-0.01577 0,-0.03154 0,-0.04731 0,-0.141919 -0.09461,-0.252301 -0.252302,-0.252301 h -1.561117 c -0.173457,0 -0.331146,0.141919 -0.362683,0.315377 l -0.709599,4.021059 c -0.488835,0.03154 -0.977669,0.04731 -1.561117,0.04731 -0.772674,0 -1.592655,-0.40999 -1.592655,-1.939569 0,-0.299609 0.03154,-0.630755 0.09461,-1.024976 l 0.394222,-2.270716 c 0.362684,-2.113027 1.482273,-2.980314 2.728012,-2.980314 1.513811,0 2.459942,0.06307 3.169541,0.126151 h 0.01577 c 0.01577,0 0.01577,0 0.03154,0 0.236533,0 0.331146,-0.110382 0.378452,-0.331146 l 0.189227,-1.056514 c 0,-0.03154 0.01577,-0.04731 0.01577,-0.07884 z"
         inkscape:connector-curvature="0" />
    </g>
  </g>
</svg>
