<?xml version="1.0" encoding="UTF-8" standalone="no"?>
<!-- Created with Inkscape (http://www.inkscape.org/) -->

<svg
   xmlns:dc="http://purl.org/dc/elements/1.1/"
   xmlns:cc="http://creativecommons.org/ns#"
   xmlns:rdf="http://www.w3.org/1999/02/22-rdf-syntax-ns#"
   xmlns:svg="http://www.w3.org/2000/svg"
   xmlns="http://www.w3.org/2000/svg"
   xmlns:sodipodi="http://sodipodi.sourceforge.net/DTD/sodipodi-0.dtd"
   xmlns:inkscape="http://www.inkscape.org/namespaces/inkscape"
   width="40"
   height="40"
   viewBox="0 0 10.583334 10.583334"
   version="1.1"
   id="svg1438"
   inkscape:version="0.92.5 (2060ec1f9f, 2020-04-08)"
   sodipodi:docname="Hangglider.svg">
  <defs
     id="defs1432" />
  <sodipodi:namedview
     id="base"
     pagecolor="#ffffff"
     bordercolor="#666666"
     borderopacity="1.0"
     inkscape:pageopacity="0.0"
     inkscape:pageshadow="2"
     inkscape:zoom="5.6"
     inkscape:cx="13.713153"
     inkscape:cy="7.9383182"
     inkscape:document-units="mm"
     inkscape:current-layer="layer1"
     showgrid="false"
     fit-margin-top="0"
     fit-margin-left="0"
     fit-margin-right="0"
     fit-margin-bottom="0"
     units="px"
     inkscape:window-width="1920"
     inkscape:window-height="1017"
     inkscape:window-x="-8"
     inkscape:window-y="-8"
     inkscape:window-maximized="1" />
  <metadata
     id="metadata1435">
    <rdf:RDF>
      <cc:Work
         rdf:about="">
        <dc:format>image/svg+xml</dc:format>
        <dc:type
           rdf:resource="http://purl.org/dc/dcmitype/StillImage" />
        <dc:title></dc:title>
      </cc:Work>
    </rdf:RDF>
  </metadata>
  <g
     inkscape:label="Layer 1"
     inkscape:groupmode="layer"
     id="layer1"
     transform="translate(-100.53931,-143.39732)">
    <path
       style="fill:#000000;stroke-width:1"
       d="m 100.53939,153.94561 c -0.0118,-0.59441 1.3676,-4.82189 1.97929,-6.06612 0.76393,-1.55389 1.24399,-1.9909 3.12879,-2.84821 1.84182,-0.83775 5.23638,-1.8344 5.44569,-1.59886 0.0829,0.0932 -0.015,0.22994 -0.21746,0.3038 -0.38577,0.14074 -4.38571,3.69224 -4.64566,4.12483 -0.0826,0.13742 0.51138,0.40213 1.31991,0.58823 0.80852,0.18609 1.52945,0.4372 1.60204,0.55803 0.15209,0.25309 -2.65787,3.22424 -3.04932,3.22424 -0.14302,0 -0.3895,-0.52021 -0.54774,-1.15601 -0.51865,-2.08389 -0.48096,-2.0622 -1.53562,-0.88371 -0.53567,0.59858 -1.53633,1.76139 -2.22371,2.58403 -0.68736,0.82264 -1.25266,1.34903 -1.25621,1.16975 z m 5.7682,-3.03065 c -0.057,-1.49432 0.18516,-1.76519 1.39915,-1.56553 0.56356,0.0927 1.02464,0.0641 1.02464,-0.0634 0,-0.34254 -2.92127,-0.95881 -3.19764,-0.67457 -0.20527,0.21112 0.46948,3.3481 0.72017,3.3481 0.0514,0 0.0756,-0.47006 0.0537,-1.04459 z"
       id="path5735"
       inkscape:connector-curvature="0" />
  </g>
</svg>
