<?xml version="1.0" encoding="UTF-8" standalone="no"?>
<!-- Created with Inkscape (http://www.inkscape.org/) -->

<svg
   xmlns:dc="http://purl.org/dc/elements/1.1/"
   xmlns:cc="http://creativecommons.org/ns#"
   xmlns:rdf="http://www.w3.org/1999/02/22-rdf-syntax-ns#"
   xmlns:svg="http://www.w3.org/2000/svg"
   xmlns="http://www.w3.org/2000/svg"
   xmlns:sodipodi="http://sodipodi.sourceforge.net/DTD/sodipodi-0.dtd"
   xmlns:inkscape="http://www.inkscape.org/namespaces/inkscape"
   width="10.517401mm"
   height="10.549482mm"
   viewBox="0 0 10.517401 10.549482"
   version="1.1"
   id="svg7554"
   inkscape:version="0.92.5 (2060ec1f9f, 2020-04-08)"
   sodipodi:docname="Helicopter.svg">
  <defs
     id="defs7548" />
  <sodipodi:namedview
     id="base"
     pagecolor="#ffffff"
     bordercolor="#666666"
     borderopacity="1.0"
     inkscape:pageopacity="0.0"
     inkscape:pageshadow="2"
     inkscape:zoom="5.6"
     inkscape:cx="21.695734"
     inkscape:cy="24.822049"
     inkscape:document-units="mm"
     inkscape:current-layer="layer1"
     showgrid="false"
     fit-margin-top="0"
     fit-margin-left="0"
     fit-margin-right="0"
     fit-margin-bottom="0"
     inkscape:window-width="1920"
     inkscape:window-height="1017"
     inkscape:window-x="-8"
     inkscape:window-y="-8"
     inkscape:window-maximized="1" />
  <metadata
     id="metadata7551">
    <rdf:RDF>
      <cc:Work
         rdf:about="">
        <dc:format>image/svg+xml</dc:format>
        <dc:type
           rdf:resource="http://purl.org/dc/dcmitype/StillImage" />
        <dc:title></dc:title>
      </cc:Work>
    </rdf:RDF>
  </metadata>
  <g
     inkscape:label="Layer 1"
     inkscape:groupmode="layer"
     id="layer1"
     transform="translate(-107.26922,-111.37984)">
    <path
       style="fill:#000000;stroke-width:1"
       d="m 110.70651,121.66474 c 0,-0.14552 0.21749,-0.26458 0.48331,-0.26458 0.26582,0 1.59615,-0.83344 2.95628,-1.85209 1.36013,-1.01864 2.57139,-1.85208 2.69169,-1.85208 0.74012,0 -0.0893,0.96991 -2.1268,2.48694 -1.72179,1.28199 -2.56609,1.74639 -3.175,1.74639 -0.45621,0 -0.82948,-0.11906 -0.82948,-0.26458 z m -0.77454,-1.49089 c -0.30161,-0.38343 -0.54837,-0.92303 -0.54837,-1.19912 0,-0.72908 0.73405,-2.37172 1.35544,-3.03315 0.35713,-0.38016 0.43897,-0.63125 0.24484,-0.75123 -0.16038,-0.0991 -0.98917,0.4241 -1.84176,1.16271 -0.8526,0.73861 -1.6233,1.34293 -1.71268,1.34293 -0.0894,0 -0.16147,-0.20836 -0.1602,-0.46302 0.001,-0.27444 0.64793,-0.87898 1.5875,-1.48434 0.87186,-0.56172 1.58519,-1.1868 1.58519,-1.38906 0,-0.20226 0.20836,-0.3688 0.46302,-0.3701 0.25466,-10e-4 1.15727,-0.5966 2.0058,-1.32291 1.58712,-1.35853 1.88383,-1.50508 2.15592,-1.06484 0.0869,0.14065 -0.68001,0.813 -1.7043,1.4941 -1.47927,0.98366 -1.80123,1.31201 -1.56524,1.59636 0.53758,0.64775 1.45182,0.37651 3.2054,-0.95099 0.95101,-0.71993 1.79632,-1.24175 1.87846,-1.15961 0.0822,0.0821 -0.43316,0.86928 -1.14512,1.74918 -1.19527,1.47722 -1.26524,1.64157 -0.91296,2.14453 0.20984,0.29958 0.38152,0.68766 0.38152,0.8624 0,0.86127 -3.2212,3.5333 -4.25949,3.5333 -0.25553,0 -0.71137,-0.31371 -1.01297,-0.69714 z m 1.93728,-1.28456 c 0.74302,-0.68861 0.69038,-1.21765 -0.19422,-1.9518 -0.46922,-0.38942 -1.14388,0.17862 -1.39353,1.17328 -0.36728,1.46338 0.428,1.85334 1.58775,0.77852 z m 4.98883,-5.53036 c 0.25466,-0.19332 0.46302,-0.48016 0.46302,-0.63743 0,-0.55374 -0.5686,-0.62812 -1.10576,-0.14466 -0.52891,0.47604 -0.54069,0.47573 -0.44635,-0.0119 0.14341,-0.74121 0.91439,-1.15234 1.48596,-0.79239 0.8999,0.56671 0.59123,1.96619 -0.42927,1.94625 -0.38224,-0.007 -0.3786,-0.0479 0.0324,-0.3599 z"
       id="path8131"
       inkscape:connector-curvature="0" />
  </g>
</svg>
