<?xml version="1.0" encoding="UTF-8" standalone="no"?>
<!-- Created with Inkscape (http://www.inkscape.org/) -->

<svg
   xmlns:dc="http://purl.org/dc/elements/1.1/"
   xmlns:cc="http://creativecommons.org/ns#"
   xmlns:rdf="http://www.w3.org/1999/02/22-rdf-syntax-ns#"
   xmlns:svg="http://www.w3.org/2000/svg"
   xmlns="http://www.w3.org/2000/svg"
   xmlns:sodipodi="http://sodipodi.sourceforge.net/DTD/sodipodi-0.dtd"
   xmlns:inkscape="http://www.inkscape.org/namespaces/inkscape"
   width="31.863924mm"
   height="10.587282mm"
   viewBox="0 0 31.863924 10.587282"
   version="1.1"
   id="svg5166"
   inkscape:version="0.92.5 (2060ec1f9f, 2020-04-08)"
   sodipodi:docname="para-hang-com.svg">
  <defs
     id="defs5160" />
  <sodipodi:namedview
     id="base"
     pagecolor="#ffffff"
     bordercolor="#666666"
     borderopacity="1.0"
     inkscape:pageopacity="0.0"
     inkscape:pageshadow="2"
     inkscape:zoom="5.6"
     inkscape:cx="69.609834"
     inkscape:cy="25.178124"
     inkscape:document-units="mm"
     inkscape:current-layer="layer1"
     showgrid="false"
     showguides="true"
     inkscape:guide-bbox="true"
     fit-margin-top="0"
     fit-margin-left="0"
     fit-margin-right="0"
     fit-margin-bottom="0"
     inkscape:window-width="1920"
     inkscape:window-height="1017"
     inkscape:window-x="-8"
     inkscape:window-y="-8"
     inkscape:window-maximized="1">
    <sodipodi:guide
       position="9.4471264,10.591234"
       orientation="0,1"
       id="guide5776"
       inkscape:locked="false" />
    <sodipodi:guide
       position="6.0394404,0.034094095"
       orientation="0,1"
       id="guide5778"
       inkscape:locked="false" />
  </sodipodi:namedview>
  <metadata
     id="metadata5163">
    <rdf:RDF>
      <cc:Work
         rdf:about="">
        <dc:format>image/svg+xml</dc:format>
        <dc:type
           rdf:resource="http://purl.org/dc/dcmitype/StillImage" />
        <dc:title></dc:title>
      </cc:Work>
    </rdf:RDF>
  </metadata>
  <g
     inkscape:label="Layer 1"
     inkscape:groupmode="layer"
     id="layer1"
     transform="translate(-45.209491,-67.953962)">
    <g
       id="g5784">
      <path
         inkscape:connector-curvature="0"
         id="path5722"
         d="m 46.655011,78.239776 c -0.09144,-0.147958 -0.135794,-0.534911 -0.09856,-0.859895 0.03724,-0.324984 -0.02206,-0.858771 -0.131767,-1.186193 -0.218927,-0.653379 0.0027,-1.653646 0.366421,-1.653646 0.126495,0 0.267299,0.381163 0.3129,0.847029 0.0619,0.632391 0.302049,0.974516 0.947706,1.350135 0.800432,0.46566 0.912638,0.47176 1.507557,0.08195 0.462355,-0.302946 0.695108,-0.33645 0.82927,-0.119371 0.217954,0.352657 -0.588334,1.015254 -1.235422,1.015254 -0.24541,0 -0.59442,0.178594 -0.775577,0.396875 -0.37434,0.451052 -1.472413,0.532559 -1.722531,0.127859 z m 4.103781,-1.591371 c 0,-0.300063 0.139144,-0.361035 1.785937,-0.782581 0.618464,-0.158315 1.124479,-0.39973 1.124479,-0.536478 0,-0.136749 -0.670949,-0.919583 -1.490998,-1.739632 -1.43136,-1.43136 -5.179971,-3.579396 -5.568497,-3.19087 -0.0882,0.0882 -0.04686,0.998883 0.09187,2.023738 0.175923,1.299623 0.167425,1.835317 -0.02809,1.770642 -0.154179,-0.051 -0.413252,-0.970795 -0.575718,-2.043989 -0.162466,-1.073193 -0.430357,-1.996248 -0.595312,-2.051233 -0.468152,-0.156051 -0.352213,-1.249454 0.183934,-1.734661 1.254133,-1.134974 5.780869,0.224629 8.071377,2.424236 2.472163,2.37405 2.691926,5.339965 0.395673,5.339965 -0.365596,0 -1.24919,0.177305 -1.963541,0.394011 -1.55603,0.472038 -1.431113,0.460965 -1.431114,0.126852 z m -2.898203,-0.373854 c -0.714558,-0.86099 0.467974,-1.89688 1.260588,-1.104266 0.33696,0.336959 0.371467,0.543703 0.149563,0.896076 -0.386334,0.613479 -0.998752,0.703894 -1.410151,0.20819 z"
         style="fill:#000000;stroke-width:1" />
      <path
         inkscape:connector-curvature="0"
         id="path5735"
         d="m 66.48546,78.507151 c -0.01177,-0.578195 1.368211,-4.690348 1.980169,-5.900637 0.764265,-1.511513 1.244536,-1.9366 3.130182,-2.770522 1.842633,-0.8149 5.238695,-1.78436 5.44811,-1.55525 0.08289,0.09069 -0.01501,0.223668 -0.217564,0.295516 -0.385944,0.1369 -4.387658,3.591524 -4.647718,4.012309 -0.08262,0.133678 0.511601,0.391159 1.320486,0.57218 0.808885,0.18102 1.530129,0.425285 1.602763,0.54281 0.152153,0.246189 -2.65906,3.13629 -3.050682,3.13629 -0.143076,0 -0.389667,-0.506016 -0.547982,-1.124479 -0.518882,-2.027038 -0.481178,-2.005942 -1.536293,-0.859597 -0.535911,0.582248 -1.537026,1.713342 -2.224701,2.513542 -0.687674,0.8002 -1.253221,1.312227 -1.25677,1.137838 z m 5.770756,-2.947983 c -0.05696,-1.453546 0.18524,-1.717033 1.39977,-1.522822 0.563807,0.09016 1.025103,0.0624 1.025103,-0.06169 0,-0.333199 -2.922573,-0.932657 -3.199061,-0.656169 -0.205365,0.205366 0.469686,3.256772 0.720484,3.256772 0.05143,0 0.0756,-0.457243 0.0537,-1.016095 z"
         style="fill:#000000;stroke-width:1" />
      <path
         inkscape:connector-curvature="0"
         id="path5759"
         d="m 58.380802,73.099972 c -0.09271,-0.09271 0.06604,-0.498048 0.352777,-0.90074 0.667768,-0.937793 0.664667,-2.116711 -0.0078,-2.971635 -0.630919,-0.802085 -0.676978,-1.25072 -0.128402,-1.25072 0.625469,0 1.449228,1.595223 1.45033,2.808589 0.0013,1.414412 -1.07397,2.907424 -1.666888,2.314506 z M 57.402846,72.22266 c 0,-0.138674 0.142193,-0.564215 0.315985,-0.945646 0.244924,-0.537551 0.244924,-0.807298 0,-1.199484 -0.423339,-0.677873 -0.39831,-1.04232 0.07158,-1.04232 0.93236,0 1.272147,2.259023 0.451496,3.001701 -0.545199,0.493398 -0.839062,0.558453 -0.839061,0.185749 z m -1.146528,-0.982589 c -0.387655,-0.387654 -0.16449,-1.146527 0.337163,-1.146527 0.67537,0 0.935329,0.45546 0.535162,0.937631 -0.349295,0.420875 -0.60025,0.480971 -0.872325,0.208896 z"
         style="fill:#000000;stroke-width:1" />
      <path
         inkscape:connector-curvature="0"
         id="path5759-2"
         d="m 62.866533,73.378076 c 0.09271,0.09271 -0.06604,0.498048 -0.352777,0.90074 -0.667768,0.937793 -0.664667,2.116711 0.0078,2.971635 0.630919,0.802085 0.676978,1.25072 0.128402,1.25072 -0.625469,0 -1.449228,-1.595223 -1.45033,-2.808589 -0.0013,-1.414412 1.07397,-2.907424 1.666888,-2.314506 z m 0.977956,0.877312 c 0,0.138674 -0.142193,0.564215 -0.315985,0.945646 -0.244924,0.537551 -0.244924,0.807298 0,1.199484 0.423339,0.677873 0.39831,1.04232 -0.07158,1.04232 -0.93236,0 -1.272147,-2.259024 -0.451496,-3.001702 0.545199,-0.493397 0.839062,-0.558452 0.839061,-0.185748 z m 1.146528,0.982589 c 0.387655,0.387654 0.16449,1.146527 -0.337163,1.146527 -0.67537,0 -0.935329,-0.45546 -0.535162,-0.937631 0.349295,-0.420875 0.60025,-0.480971 0.872325,-0.208896 z"
         style="fill:#000000;stroke-width:1" />
    </g>
  </g>
</svg>
