<?xml version="1.0" encoding="UTF-8" standalone="no"?>
<!-- Created with Inkscape (http://www.inkscape.org/) -->

<svg
   xmlns:dc="http://purl.org/dc/elements/1.1/"
   xmlns:cc="http://creativecommons.org/ns#"
   xmlns:rdf="http://www.w3.org/1999/02/22-rdf-syntax-ns#"
   xmlns:svg="http://www.w3.org/2000/svg"
   xmlns="http://www.w3.org/2000/svg"
   xmlns:sodipodi="http://sodipodi.sourceforge.net/DTD/sodipodi-0.dtd"
   xmlns:inkscape="http://www.inkscape.org/namespaces/inkscape"
   width="40"
   height="40"
   viewBox="0 0 10.583334 10.583333"
   version="1.1"
   id="svg857"
   inkscape:version="0.92.5 (2060ec1f9f, 2020-04-08)"
   sodipodi:docname="Paraglider.svg">
  <defs
     id="defs851" />
  <sodipodi:namedview
     id="base"
     pagecolor="#ffffff"
     bordercolor="#666666"
     borderopacity="1.0"
     inkscape:pageopacity="0.0"
     inkscape:pageshadow="2"
     inkscape:zoom="11.2"
     inkscape:cx="41.537672"
     inkscape:cy="18.346923"
     inkscape:document-units="mm"
     inkscape:current-layer="layer1"
     showgrid="false"
     fit-margin-top="0"
     fit-margin-left="0"
     fit-margin-right="0"
     fit-margin-bottom="0"
     units="px"
     inkscape:window-width="1920"
     inkscape:window-height="1017"
     inkscape:window-x="-8"
     inkscape:window-y="-8"
     inkscape:window-maximized="1" />
  <metadata
     id="metadata854">
    <rdf:RDF>
      <cc:Work
         rdf:about="">
        <dc:format>image/svg+xml</dc:format>
        <dc:type
           rdf:resource="http://purl.org/dc/dcmitype/StillImage" />
        <dc:title></dc:title>
      </cc:Work>
    </rdf:RDF>
  </metadata>
  <g
     inkscape:label="Layer 1"
     inkscape:groupmode="layer"
     id="layer1"
     transform="translate(40.800619,-137.47619)">
    <path
       style="fill:#000000;stroke-width:1"
       d="m -39.349393,147.79684 c -0.0918,-0.14846 -0.13633,-0.53674 -0.09895,-0.86282 0.03739,-0.32608 -0.02215,-0.86168 -0.132287,-1.19021 -0.219791,-0.65559 0.0027,-1.65924 0.367868,-1.65924 0.126994,0 0.268354,0.38245 0.314135,0.84989 0.06214,0.63454 0.303241,0.97782 0.951448,1.35472 0.803592,0.46723 0.916241,0.47335 1.513508,0.0823 0.464181,-0.30397 0.697854,-0.33759 0.832545,-0.11977 0.218814,0.35384 -0.590657,1.01869 -1.2403,1.01869 -0.246379,0 -0.596767,0.17919 -0.778638,0.39822 -0.375819,0.45259 -1.478227,0.53436 -1.729333,0.12829 z m 4.119983,-1.59678 c 0,-0.30107 0.139694,-0.36225 1.792988,-0.78523 0.620907,-0.15884 1.128919,-0.40108 1.128919,-0.53828 0,-0.13721 -0.673599,-0.9227 -1.496885,-1.74553 -1.437011,-1.43621 -5.200422,-3.59151 -5.590482,-3.20167 -0.08855,0.0885 -0.04705,1.00227 0.09223,2.03059 0.176618,1.30402 0.168086,1.84153 -0.0282,1.77663 -0.154786,-0.0512 -0.414882,-0.97407 -0.577991,-2.05091 -0.163107,-1.07682 -0.432056,-2.003 -0.597662,-2.05817 -0.47,-0.15658 -0.353603,-1.25368 0.18466,-1.74054 1.259086,-1.13881 5.803693,0.22539 8.103244,2.43245 2.481923,2.38209 2.702554,5.35804 0.397235,5.35804 -0.367039,0 -1.254122,0.17791 -1.971293,0.39534 -1.562173,0.47364 -1.436763,0.46254 -1.436765,0.12728 z m -2.909645,-0.37511 c -0.717379,-0.86391 0.469822,-1.9033 1.265565,-1.10801 0.33829,0.3381 0.372934,0.54555 0.150153,0.89911 -0.387859,0.61556 -1.002694,0.70629 -1.415718,0.2089 z"
       id="path5722"
       inkscape:connector-curvature="0" />
  </g>
</svg>
