<?xml version="1.0" encoding="UTF-8" standalone="no"?>
<!-- Created with Inkscape (http://www.inkscape.org/) -->

<svg
   xmlns:dc="http://purl.org/dc/elements/1.1/"
   xmlns:cc="http://creativecommons.org/ns#"
   xmlns:rdf="http://www.w3.org/1999/02/22-rdf-syntax-ns#"
   xmlns:svg="http://www.w3.org/2000/svg"
   xmlns="http://www.w3.org/2000/svg"
   xmlns:sodipodi="http://sodipodi.sourceforge.net/DTD/sodipodi-0.dtd"
   xmlns:inkscape="http://www.inkscape.org/namespaces/inkscape"
   width="10.269046mm"
   height="10.443332mm"
   viewBox="0 0 10.269046 10.443332"
   version="1.1"
   id="svg7554"
   inkscape:version="0.92.5 (2060ec1f9f, 2020-04-08)"
   sodipodi:docname="Sailplane.svg">
  <defs
     id="defs7548" />
  <sodipodi:namedview
     id="base"
     pagecolor="#ffffff"
     bordercolor="#666666"
     borderopacity="1.0"
     inkscape:pageopacity="0.0"
     inkscape:pageshadow="2"
     inkscape:zoom="5.6"
     inkscape:cx="15.337699"
     inkscape:cy="20.221499"
     inkscape:document-units="mm"
     inkscape:current-layer="layer1"
     showgrid="false"
     fit-margin-top="0"
     fit-margin-left="0"
     fit-margin-right="0"
     fit-margin-bottom="0"
     inkscape:window-width="1920"
     inkscape:window-height="1017"
     inkscape:window-x="-8"
     inkscape:window-y="-8"
     inkscape:window-maximized="1" />
  <metadata
     id="metadata7551">
    <rdf:RDF>
      <cc:Work
         rdf:about="">
        <dc:format>image/svg+xml</dc:format>
        <dc:type
           rdf:resource="http://purl.org/dc/dcmitype/StillImage" />
        <dc:title></dc:title>
      </cc:Work>
    </rdf:RDF>
  </metadata>
  <g
     inkscape:label="Layer 1"
     inkscape:groupmode="layer"
     id="layer1"
     transform="translate(-108.95145,-110.26876)">
    <path
       style="fill:#000000;stroke-width:1"
       d="m 118.90985,120.45354 c -0.0905,-0.14644 -0.96074,-0.79651 -1.93384,-1.4446 -0.97311,-0.64809 -2.06694,-1.41859 -2.43075,-1.71223 -0.5045,-0.4072 -1.05756,-0.53529 -2.33072,-0.53977 -1.78007,-0.006 -2.0243,-0.38897 -0.43812,-0.68654 0.50422,-0.0946 0.91676,-0.21042 0.91676,-0.25739 0,-0.047 -0.62508,-0.91774 -1.38906,-1.93505 -0.76399,-1.01731 -1.60588,-2.24556 -1.87087,-2.72943 l -0.4818,-0.87977 0.61314,0.79375 c 0.33723,0.43656 1.33783,1.68672 2.22356,2.77813 l 1.61041,1.98437 2.08441,0.0783 c 1.89618,0.0712 2.12469,0.0249 2.53031,-0.51284 0.24524,-0.32512 0.37851,-0.77707 0.29615,-1.00433 -0.11773,-0.3249 -0.0299,-0.30801 0.41126,0.079 0.52281,0.45872 0.5328,0.53526 0.14673,1.12448 -0.36734,0.56062 -0.61314,0.63271 -2.16977,0.6363 -2.65543,0.006 -2.74002,0.23717 -0.64978,1.77478 0.99258,0.73016 2.07028,1.48927 2.39489,1.6869 0.32461,0.19764 0.64829,0.51073 0.7193,0.69576 0.15366,0.40043 -0.0185,0.44832 -0.25221,0.0702 z"
       id="path8157"
       inkscape:connector-curvature="0" />
  </g>
</svg>
