<?xml version="1.0" encoding="UTF-8" standalone="no"?>
<!-- Created with Inkscape (http://www.inkscape.org/) -->

<svg
   xmlns:dc="http://purl.org/dc/elements/1.1/"
   xmlns:cc="http://creativecommons.org/ns#"
   xmlns:rdf="http://www.w3.org/1999/02/22-rdf-syntax-ns#"
   xmlns:svg="http://www.w3.org/2000/svg"
   xmlns="http://www.w3.org/2000/svg"
   xmlns:sodipodi="http://sodipodi.sourceforge.net/DTD/sodipodi-0.dtd"
   xmlns:inkscape="http://www.inkscape.org/namespaces/inkscape"
   width="10.58333mm"
   height="10.58333mm"
   viewBox="0 0 10.58333 10.58333"
   version="1.1"
   id="svg7554"
   inkscape:version="0.92.5 (2060ec1f9f, 2020-04-08)"
   sodipodi:docname="UAV.svg">
  <defs
     id="defs7548" />
  <sodipodi:namedview
     id="base"
     pagecolor="#ffffff"
     bordercolor="#666666"
     borderopacity="1.0"
     inkscape:pageopacity="0.0"
     inkscape:pageshadow="2"
     inkscape:zoom="5.6"
     inkscape:cx="27.83773"
     inkscape:cy="20.757203"
     inkscape:document-units="mm"
     inkscape:current-layer="layer1"
     showgrid="false"
     fit-margin-top="0"
     fit-margin-left="0"
     fit-margin-right="0"
     fit-margin-bottom="0"
     inkscape:window-width="1920"
     inkscape:window-height="1017"
     inkscape:window-x="-8"
     inkscape:window-y="-8"
     inkscape:window-maximized="1" />
  <metadata
     id="metadata7551">
    <rdf:RDF>
      <cc:Work
         rdf:about="">
        <dc:format>image/svg+xml</dc:format>
        <dc:type
           rdf:resource="http://purl.org/dc/dcmitype/StillImage" />
        <dc:title></dc:title>
      </cc:Work>
    </rdf:RDF>
  </metadata>
  <g
     inkscape:label="Layer 1"
     inkscape:groupmode="layer"
     id="layer1"
     transform="translate(-105.64415,-110.2705)">
    <path
       style="fill:#000000;stroke-width:1"
       d="m 106.29358,120.2044 c -0.35719,-0.35719 -0.64943,-0.95791 -0.64943,-1.33494 0,-0.95949 1.14501,-2.04292 2.05784,-1.94717 1.05633,0.1108 1.38174,-0.20952 1.38174,-1.36012 0,-1.1506 -0.32541,-1.47093 -1.38174,-1.36013 -0.91283,0.0957 -2.05784,-0.98767 -2.05784,-1.94717 0,-0.88215 1.10222,-1.98437 1.98437,-1.98437 0.9595,0 2.04292,1.14501 1.94717,2.05784 -0.1108,1.05633 0.20953,1.38174 1.36013,1.38174 1.1506,0 1.47092,-0.32541 1.36012,-1.38174 -0.0958,-0.91283 0.98768,-2.05784 1.94717,-2.05784 0.88215,0 1.98437,1.10222 1.98437,1.98437 0,0.9595 -1.145,2.04292 -2.05784,1.94717 -1.05632,-0.1108 -1.38174,0.20953 -1.38174,1.36013 0,1.1506 0.32542,1.47092 1.38174,1.36012 0.91284,-0.0957 2.05784,0.98768 2.05784,1.94717 0,0.88215 -1.10222,1.98437 -1.98437,1.98437 -0.95949,0 -2.04292,-1.145 -1.94717,-2.05784 0.1108,-1.05632 -0.20952,-1.38174 -1.36012,-1.38174 -1.1506,0 -1.47093,0.32542 -1.36013,1.38174 0.0957,0.91284 -0.98767,2.05784 -1.94717,2.05784 -0.37703,0 -0.97775,-0.29224 -1.33494,-0.64943 z m 2.44237,-0.19044 c 0.3368,-0.31641 0.61237,-0.85219 0.61237,-1.19062 0,-0.70745 -0.22167,-0.76624 -0.93163,-0.2471 -0.41922,0.30654 -0.44663,0.4369 -0.16357,0.77797 0.29975,0.36118 0.26522,0.37441 -0.29148,0.11168 -0.34734,-0.16391 -0.76564,-0.58221 -0.92955,-0.92954 -0.26272,-0.55671 -0.24949,-0.59124 0.11169,-0.29149 0.34106,0.28306 0.47142,0.25565 0.77796,-0.16356 0.51303,-0.70161 0.46117,-0.93163 -0.21002,-0.93163 -0.74011,0 -1.80299,0.99197 -1.80299,1.68271 0,0.70139 1.01093,1.75687 1.68272,1.75687 0.29267,0 0.8077,-0.25888 1.1445,-0.57529 z m 6.61458,0 c 0.33681,-0.31641 0.61237,-0.81475 0.61237,-1.10742 0,-0.7377 -1.02442,-1.75687 -1.76591,-1.75687 -0.70745,0 -0.76624,0.22166 -0.2471,0.93163 0.30654,0.41921 0.4369,0.44662 0.77797,0.16356 0.36118,-0.29975 0.37441,-0.26522 0.11168,0.29149 -0.16391,0.34733 -0.58221,0.76563 -0.92954,0.92954 -0.55671,0.26273 -0.59124,0.2495 -0.29149,-0.11168 0.28306,-0.34107 0.25565,-0.47143 -0.16356,-0.77797 -0.70161,-0.51302 -0.93163,-0.46117 -0.93163,0.21002 0,0.74011 0.99197,1.80299 1.68271,1.80299 0.29268,0 0.8077,-0.25888 1.1445,-0.57529 z m -7.06055,-6.25331 c 0,-0.1177 -0.16571,-0.44063 -0.36824,-0.71761 -0.30654,-0.41922 -0.4369,-0.44663 -0.77796,-0.16357 -0.36118,0.29975 -0.37441,0.26522 -0.11169,-0.29148 0.16391,-0.34734 0.58221,-0.76564 0.92955,-0.92955 0.5567,-0.26272 0.59123,-0.24949 0.29148,0.11169 -0.28306,0.34106 -0.25565,0.47142 0.16357,0.77796 0.7016,0.51303 0.93163,0.46117 0.93163,-0.21002 0,-0.74011 -0.99198,-1.80299 -1.68272,-1.80299 -0.70139,0 -1.75687,1.01093 -1.75687,1.68272 0,0.7377 1.02442,1.75687 1.76592,1.75687 0.33843,0 0.61533,-0.0963 0.61533,-0.21402 z m 7.06055,-0.36127 c 0.33681,-0.31641 0.61237,-0.81475 0.61237,-1.10743 0,-0.70139 -1.01093,-1.75687 -1.68271,-1.75687 -0.7377,0 -1.75687,1.02442 -1.75687,1.76592 0,0.70744 0.22166,0.76623 0.93163,0.24709 0.41921,-0.30654 0.44662,-0.4369 0.16356,-0.77796 -0.29975,-0.36118 -0.26522,-0.37441 0.29149,-0.11169 0.34733,0.16391 0.76563,0.58221 0.92954,0.92955 0.26273,0.5567 0.2495,0.59123 -0.11168,0.29148 -0.34107,-0.28306 -0.47143,-0.25565 -0.77797,0.16357 -0.20253,0.27698 -0.36824,0.59991 -0.36824,0.71761 0,0.43565 1.17634,0.1954 1.76888,-0.36127 z"
       id="path8170"
       inkscape:connector-curvature="0" />
  </g>
</svg>
